<svg width="21" height="19" viewBox="0 0 21 19" fill="none" xmlns="http://www.w3.org/2000/svg">
<path opacity="0.5" d="M0.5 8.5C0.5 8.23478 0.605357 7.98043 0.792893 7.79289C0.98043 7.60536 1.23478 7.5 1.5 7.5H19.5C19.7652 7.5 20.0196 7.60536 20.2071 7.79289C20.3946 7.98043 20.5 8.23478 20.5 8.5V10.5C20.5 10.7652 20.3946 11.0196 20.2071 11.2071C20.0196 11.3946 19.7652 11.5 19.5 11.5H1.5C1.23478 11.5 0.98043 11.3946 0.792893 11.2071C0.605357 11.0196 0.5 10.7652 0.5 10.5V8.5Z" fill="white"/>
<path opacity="0.3" d="M0.5 15.5C0.5 15.2348 0.605357 14.9804 0.792893 14.7929C0.98043 14.6054 1.23478 14.5 1.5 14.5H19.5C19.7652 14.5 20.0196 14.6054 20.2071 14.7929C20.3946 14.9804 20.5 15.2348 20.5 15.5V17.5C20.5 17.7652 20.3946 18.0196 20.2071 18.2071C20.0196 18.3946 19.7652 18.5 19.5 18.5H1.5C1.23478 18.5 0.98043 18.3946 0.792893 18.2071C0.605357 18.0196 0.5 17.7652 0.5 17.5V15.5Z" fill="white"/>
<path d="M0.5 1.5C0.5 1.23478 0.605357 0.98043 0.792893 0.792893C0.98043 0.605357 1.23478 0.5 1.5 0.5H19.5C19.7652 0.5 20.0196 0.605357 20.2071 0.792893C20.3946 0.98043 20.5 1.23478 20.5 1.5V3.5C20.5 3.76522 20.3946 4.01957 20.2071 4.20711C20.0196 4.39464 19.7652 4.5 19.5 4.5H1.5C1.23478 4.5 0.98043 4.39464 0.792893 4.20711C0.605357 4.01957 0.5 3.76522 0.5 3.5V1.5Z" fill="white"/>
</svg>
