<svg width="25" height="25" viewBox="0 0 25 25" fill="none" xmlns="http://www.w3.org/2000/svg">
<path opacity="0.5" d="M20.278 20.278C20.668 20.668 21.305 20.671 21.662 20.25C23.4982 18.0856 24.5042 15.3384 24.5 12.5C24.5 5.873 19.127 0.5 12.5 0.5C5.873 0.5 0.5 5.873 0.5 12.5C0.5 15.454 1.567 18.159 3.338 20.25C3.695 20.671 4.331 20.669 4.722 20.278C5.112 19.888 5.108 19.258 4.758 18.83C3.29461 17.0454 2.49647 14.8079 2.5 12.5C2.5 6.977 6.977 2.5 12.5 2.5C18.023 2.5 22.5 6.977 22.5 12.5C22.5035 14.8079 21.7054 17.0454 20.242 18.83C19.892 19.257 19.888 19.888 20.278 20.278Z" fill="white"/>
<path d="M6.5 22.895V22.5C6.5 20.9087 7.13214 19.3826 8.25736 18.2574C9.38258 17.1321 10.9087 16.5 12.5 16.5C14.0913 16.5 15.6174 17.1321 16.7426 18.2574C17.8679 19.3826 18.5 20.9087 18.5 22.5V22.895C16.6765 23.9497 14.6065 24.5034 12.5 24.5C10.314 24.5 8.265 23.916 6.5 22.895ZM15.5 11C15.5 9.067 15 7.5 12.5 7.5C10 7.5 9.5 9.067 9.5 11C9.5 12.933 10.843 14.5 12.5 14.5C14.157 14.5 15.5 12.933 15.5 11Z" fill="white"/>
</svg>
