<svg width="67" height="20" viewBox="0 0 67 20" fill="none" xmlns="http://www.w3.org/2000/svg">
<path d="M57 0C51.477 0 47 4.484 47 10.017C47 14.442 49.865 18.197 53.839 19.521C54.339 19.613 54.521 19.304 54.521 19.038C54.521 18.801 54.513 18.17 54.508 17.335C51.726 17.94 51.139 15.992 51.139 15.992C50.685 14.834 50.029 14.526 50.029 14.526C49.121 13.906 50.098 13.918 50.098 13.918C51.101 13.988 51.629 14.95 51.629 14.95C52.521 16.48 53.97 16.038 54.539 15.782C54.631 15.135 54.889 14.694 55.175 14.444C52.955 14.191 50.62 13.331 50.62 9.493C50.62 8.4 51.01 7.505 51.649 6.805C51.546 6.552 51.203 5.533 51.747 4.155C51.747 4.155 52.587 3.885 54.497 5.181C55.3128 4.95851 56.1544 4.84519 57 4.844C57.8459 4.84541 58.6878 4.95873 59.504 5.181C61.413 3.885 62.251 4.154 62.251 4.154C62.797 5.533 62.453 6.552 62.351 6.805C62.991 7.505 63.379 8.4 63.379 9.493C63.379 13.341 61.04 14.188 58.813 14.436C59.172 14.745 59.491 15.356 59.491 16.291C59.491 17.629 59.479 18.71 59.479 19.038C59.479 19.306 59.659 19.618 60.167 19.52C62.1582 18.852 63.8892 17.5751 65.1153 15.8699C66.3414 14.1647 67.0007 12.1173 67 10.017C67 4.484 62.522 0 57 0Z" fill="#6B7280"/>
<path d="M6.29 17.2534C13.837 17.2534 17.965 11.0004 17.965 5.5784C17.965 5.4004 17.965 5.2234 17.953 5.0484C18.7562 4.46693 19.4493 3.74701 20 2.9224C19.2511 3.2544 18.4566 3.47216 17.643 3.5684C18.4996 3.05546 19.1408 2.24875 19.447 1.2984C18.6417 1.77628 17.7607 2.11313 16.842 2.2944C16.2234 1.63616 15.405 1.20023 14.5136 1.0541C13.6222 0.907974 12.7075 1.0598 11.9111 1.48607C11.1147 1.91234 10.4811 2.58927 10.1083 3.41206C9.7355 4.23485 9.64437 5.15758 9.849 6.0374C8.21759 5.95564 6.6216 5.53172 5.16465 4.79317C3.70769 4.05461 2.42233 3.01792 1.392 1.7504C0.867318 2.6536 0.706589 3.72282 0.942536 4.74036C1.17848 5.75791 1.79337 6.64728 2.662 7.2274C2.00926 7.20846 1.37065 7.03286 0.8 6.7154V6.7674C0.800389 7.71469 1.1284 8.6327 1.7284 9.36576C2.3284 10.0988 3.16347 10.6018 4.092 10.7894C3.48782 10.9542 2.85389 10.9781 2.239 10.8594C2.50116 11.6749 3.01168 12.388 3.69913 12.899C4.38658 13.41 5.21657 13.6934 6.073 13.7094C5.22212 14.378 4.24779 14.8722 3.20573 15.1639C2.16367 15.4556 1.07432 15.539 0 15.4094C1.87658 16.6138 4.06018 17.2526 6.29 17.2494" fill="#6B7280"/>
</svg>
